<svg width="55" height="51" viewBox="0 0 55 51" fill="none" xmlns="http://www.w3.org/2000/svg">
<path fill-rule="evenodd" clip-rule="evenodd" d="M24.5558 40.3382C23.7394 40.4753 22.9007 40.5467 22.0453 40.5467C13.7353 40.5467 6.99863 33.81 6.99863 25.5C6.99863 17.1899 13.7353 10.4533 22.0453 10.4533C22.9007 10.4533 23.7394 10.5247 24.5558 10.6618C19.3912 13.5909 15.9066 19.1385 15.9066 25.5C15.9066 31.8614 19.3912 37.409 24.5558 40.3382ZM27.4993 39.5277C21.8854 37.3435 17.9066 31.8864 17.9066 25.5C17.9066 19.1136 21.8854 13.6565 27.4993 11.4722C33.1132 13.6565 37.092 19.1136 37.092 25.5C37.092 31.8864 33.1132 37.3435 27.4993 39.5277ZM27.4993 41.6555C25.7869 42.2334 23.9527 42.5467 22.0453 42.5467C12.6307 42.5467 4.99863 34.9146 4.99863 25.5C4.99863 16.0854 12.6307 8.45331 22.0453 8.45331C23.9527 8.45331 25.7869 8.76657 27.4993 9.34446C29.2117 8.76657 31.0459 8.45331 32.9533 8.45331C42.3679 8.45331 50 16.0854 50 25.5C50 34.9146 42.3679 42.5467 32.9533 42.5467C31.0459 42.5467 29.2117 42.2334 27.4993 41.6555ZM30.4429 10.6618C31.2592 10.5247 32.0979 10.4533 32.9533 10.4533C41.2634 10.4533 48 17.1899 48 25.5C48 33.81 41.2634 40.5467 32.9533 40.5467C32.0979 40.5467 31.2592 40.4753 30.4429 40.3382C35.6074 37.409 39.092 31.8614 39.092 25.5C39.092 19.1385 35.6074 13.5909 30.4429 10.6618Z" fill="#0F0BC7"/>
</svg>
