<svg width="40" height="41" viewBox="0 0 40 41" fill="none" xmlns="http://www.w3.org/2000/svg">
<rect y="0.5" width="40" height="40" rx="10" fill="#8744E1"/>
<path d="M27.4406 21.5C27.2206 21.5 26.9906 21.43 26.7706 21.38C26.3251 21.2818 25.8873 21.1515 25.4606 20.99C24.9967 20.8212 24.4867 20.83 24.0289 21.0146C23.5711 21.1992 23.1977 21.5466 22.9806 21.99L22.7606 22.44C21.7866 21.8982 20.8916 21.2252 20.1006 20.44C19.3154 19.649 18.6424 18.754 18.1006 17.78L18.5206 17.5C18.964 17.2829 19.3114 16.9095 19.496 16.4517C19.6806 15.9938 19.6894 15.4839 19.5206 15.02C19.3618 14.5924 19.2315 14.1548 19.1306 13.71C19.0806 13.49 19.0406 13.26 19.0106 13.03C18.8892 12.3256 18.5202 11.6877 17.9702 11.2312C17.4202 10.7747 16.7253 10.5296 16.0106 10.54H13.0106C12.5796 10.5359 12.1528 10.6248 11.7593 10.8005C11.3658 10.9762 11.0147 11.2347 10.73 11.5583C10.4453 11.8819 10.2337 12.263 10.1096 12.6757C9.98543 13.0884 9.95167 13.523 10.0106 13.95C10.5433 18.1394 12.4566 22.0319 15.4482 25.0126C18.4399 27.9934 22.3393 29.8925 26.5306 30.41H26.9106C27.648 30.4111 28.36 30.1405 28.9106 29.65C29.227 29.367 29.4797 29.0202 29.6521 28.6323C29.8244 28.2444 29.9126 27.8244 29.9106 27.4V24.4C29.8983 23.7054 29.6454 23.0365 29.1949 22.5077C28.7445 21.9788 28.1244 21.6226 27.4406 21.5ZM27.9406 27.5C27.9404 27.642 27.91 27.7823 27.8514 27.9116C27.7927 28.0409 27.7073 28.1563 27.6006 28.25C27.4889 28.3465 27.3582 28.4185 27.217 28.4616C27.0758 28.5046 26.9271 28.5177 26.7806 28.5C23.0355 28.0198 19.5568 26.3065 16.8933 23.6303C14.2298 20.9541 12.533 17.4673 12.0706 13.72C12.0547 13.5735 12.0686 13.4253 12.1116 13.2844C12.1546 13.1434 12.2257 13.0127 12.3206 12.9C12.4143 12.7933 12.5297 12.7078 12.659 12.6492C12.7883 12.5906 12.9286 12.5602 13.0706 12.56H16.0706C16.3031 12.5548 16.5302 12.6309 16.7127 12.7751C16.8953 12.9193 17.0218 13.1226 17.0706 13.35C17.1106 13.6233 17.1606 13.8933 17.2206 14.16C17.3361 14.6871 17.4898 15.2052 17.6806 15.71L16.2806 16.36C16.1609 16.4149 16.0532 16.4929 15.9637 16.5896C15.8743 16.6862 15.8048 16.7996 15.7593 16.9232C15.7137 17.0468 15.6931 17.1781 15.6984 17.3097C15.7038 17.4413 15.7351 17.5705 15.7906 17.69C17.2298 20.7727 19.7078 23.2508 22.7906 24.69C23.0341 24.79 23.3071 24.79 23.5506 24.69C23.6753 24.6454 23.7899 24.5764 23.8878 24.4872C23.9856 24.3979 24.0648 24.2901 24.1206 24.17L24.7406 22.77C25.2576 22.9549 25.7852 23.1085 26.3206 23.23C26.5873 23.29 26.8573 23.34 27.1306 23.38C27.358 23.4288 27.5613 23.5553 27.7055 23.7378C27.8497 23.9204 27.9258 24.1474 27.9206 24.38L27.9406 27.5Z" fill="white"/>
</svg>
