<svg width="108" height="18" viewBox="0 0 108 18" fill="none" xmlns="http://www.w3.org/2000/svg">
<path d="M9.69324 0.63755C9.78256 0.443711 10.058 0.443711 10.1474 0.63755L12.4527 5.64083C12.4908 5.72354 12.5709 5.77899 12.6617 5.78556L18.596 6.215C18.8248 6.23156 18.9123 6.52179 18.7309 6.66212L14.2489 10.1277C14.1695 10.1891 14.1345 10.2922 14.1601 10.3893L15.5359 15.5955C15.5921 15.8081 15.3661 15.9844 15.1735 15.8783L10.041 13.0485C9.96587 13.007 9.87473 13.007 9.79959 13.0485L4.66711 15.8783C4.4745 15.9844 4.2485 15.8081 4.3047 15.5955L5.68045 10.3893C5.70612 10.2922 5.67115 10.1891 5.59167 10.1277L1.10974 6.66212C0.92825 6.52179 1.0158 6.23156 1.24462 6.215L7.17886 5.78556C7.26969 5.77899 7.34977 5.72354 7.38788 5.64083L9.69324 0.63755Z" fill="#8744E1"/>
<path d="M31.7612 0.63755C31.8505 0.443711 32.126 0.443711 32.2153 0.63755L34.5207 5.64083C34.5588 5.72354 34.6389 5.77899 34.7297 5.78556L40.664 6.215C40.8928 6.23156 40.9803 6.52179 40.7988 6.66212L36.3169 10.1277C36.2374 10.1891 36.2025 10.2922 36.2281 10.3893L37.6039 15.5955C37.6601 15.8081 37.4341 15.9844 37.2415 15.8783L32.109 13.0485C32.0338 13.007 31.9427 13.007 31.8676 13.0485L26.7351 15.8783C26.5425 15.9844 26.3165 15.8081 26.3727 15.5955L27.7484 10.3893C27.7741 10.2922 27.7391 10.1891 27.6596 10.1277L23.1777 6.66212C22.9962 6.52179 23.0838 6.23156 23.3126 6.215L29.2468 5.78556C29.3377 5.77899 29.4177 5.72354 29.4559 5.64083L31.7612 0.63755Z" fill="#8744E1"/>
<path d="M53.8292 0.63755C53.9185 0.443711 54.194 0.443711 54.2833 0.63755L56.5886 5.64083C56.6268 5.72354 56.7068 5.77899 56.7977 5.78556L62.7319 6.215C62.9607 6.23156 63.0483 6.52179 62.8668 6.66212L58.3849 10.1277C58.3054 10.1891 58.2704 10.2922 58.2961 10.3893L59.6718 15.5955C59.728 15.8081 59.502 15.9844 59.3094 15.8783L54.1769 13.0485C54.1018 13.007 54.0107 13.007 53.9355 13.0485L48.803 15.8783C48.6104 15.9844 48.3844 15.8081 48.4406 15.5955L49.8164 10.3893C49.842 10.2922 49.8071 10.1891 49.7276 10.1277L45.2457 6.66212C45.0642 6.52179 45.1517 6.23156 45.3805 6.215L51.3148 5.78556C51.4056 5.77899 51.4857 5.72354 51.5238 5.64083L53.8292 0.63755Z" fill="#8744E1"/>
<path d="M75.8972 0.63755C75.9865 0.443711 76.262 0.443711 76.3513 0.63755L78.6566 5.64083C78.6947 5.72354 78.7748 5.77899 78.8657 5.78556L84.7999 6.215C85.0287 6.23156 85.1163 6.52179 84.9348 6.66212L80.4528 10.1277C80.3734 10.1891 80.3384 10.2922 80.3641 10.3893L81.7398 15.5955C81.796 15.8081 81.57 15.9844 81.3774 15.8783L76.2449 13.0485C76.1698 13.007 76.0786 13.007 76.0035 13.0485L70.871 15.8783C70.6784 15.9844 70.4524 15.8081 70.5086 15.5955L71.8844 10.3893C71.91 10.2922 71.8751 10.1891 71.7956 10.1277L67.3137 6.66212C67.1322 6.52179 67.2197 6.23156 67.4485 6.215L73.3828 5.78556C73.4736 5.77899 73.5537 5.72354 73.5918 5.64083L75.8972 0.63755Z" fill="#8744E1"/>
<path d="M97.9651 0.63755C98.0544 0.443711 98.3299 0.443711 98.4192 0.63755L100.725 5.64083C100.763 5.72354 100.843 5.77899 100.934 5.78556L106.868 6.215C107.097 6.23156 107.184 6.52179 107.003 6.66212L102.521 10.1277C102.441 10.1891 102.406 10.2922 102.432 10.3893L103.808 15.5955C103.864 15.8081 103.638 15.9844 103.445 15.8783L98.3129 13.0485C98.2377 13.007 98.1466 13.007 98.0715 13.0485L92.939 15.8783C92.7464 15.9844 92.5204 15.8081 92.5766 15.5955L93.9523 10.3893C93.978 10.2922 93.943 10.1891 93.8636 10.1277L89.3816 6.66212C89.2001 6.52179 89.2877 6.23156 89.5165 6.215L95.4507 5.78556C95.5416 5.77899 95.6216 5.72354 95.6598 5.64083L97.9651 0.63755Z" fill="#8744E1"/>
</svg>
