<svg width="32" height="32" viewBox="0 0 32 32" fill="none" xmlns="http://www.w3.org/2000/svg">
<path d="M21.5055 17.0669C21.9669 18.6051 23.3775 19.7331 25.0658 19.7331C27.1282 19.7331 28.7992 18.0624 28.7992 16C28.7992 13.9386 27.1282 12.2666 25.0658 12.2666C23.3775 12.2666 21.9679 13.3955 21.5055 14.9331H15.9032C15.797 14.305 15.6015 13.7091 15.3263 13.1571L19.924 9.81697C20.5669 10.3399 21.3749 10.6666 22.2677 10.6666C24.3301 10.6666 26.0011 8.99553 26.0011 6.93313C26.0015 4.87201 24.3304 3.20001 22.268 3.20001C20.2066 3.20001 18.5346 4.87201 18.5346 6.93345C18.5346 7.32577 18.6117 7.69665 18.7243 8.05185L14.0741 11.4291C12.9202 10.2989 11.3429 9.60001 9.59922 9.60001C6.06482 9.60001 3.19922 12.4656 3.19922 16C3.19922 19.5357 6.06482 22.4 9.59922 22.4C11.3429 22.4 12.9211 21.7011 14.0751 20.5706L18.724 23.9482C18.6114 24.3031 18.5343 24.6739 18.5343 25.0669C18.5346 27.1293 20.2063 28.8 22.268 28.8C24.3304 28.8 26.0015 27.1293 26.0015 25.0669C26.0015 23.0051 24.3304 21.3331 22.268 21.3331C21.3752 21.3331 20.5659 21.6605 19.9243 22.1831L15.3263 18.8426C15.6011 18.2919 15.797 17.6951 15.9032 17.0669H21.5055ZM25.0658 14.4C25.9483 14.4 26.6658 15.1178 26.6658 16C26.6658 16.8826 25.9483 17.6 25.0658 17.6C24.1835 17.6 23.4658 16.8826 23.4658 16C23.4658 15.1178 24.1835 14.4 25.0658 14.4ZM22.268 5.33345C23.1503 5.33345 23.868 6.05121 23.868 6.93345C23.868 7.81569 23.1503 8.53345 22.268 8.53345C21.3858 8.53345 20.668 7.81569 20.668 6.93345C20.668 6.05121 21.3858 5.33345 22.268 5.33345ZM9.59922 20.2669C7.2469 20.2669 5.33266 18.3533 5.33266 16C5.33266 13.648 7.2469 11.7335 9.59922 11.7335C11.9515 11.7335 13.8658 13.648 13.8658 16C13.8658 18.3533 11.9515 20.2669 9.59922 20.2669ZM22.268 23.4669C23.1503 23.4669 23.868 24.1843 23.868 25.0669C23.868 25.9488 23.1503 26.6669 22.268 26.6669C21.3858 26.6669 20.668 25.9488 20.668 25.0669C20.668 24.1843 21.3858 23.4669 22.268 23.4669Z" fill="#BDBDBD"/>
</svg>
