<svg width="32" height="32" viewBox="0 0 32 32" fill="none" xmlns="http://www.w3.org/2000/svg">
<rect width="32" height="32" fill="#E5E5E5"/>
<g id="My User - B">
<g clip-path="url(#clip0_0_1)">
<rect x="-1128" y="-38" width="1920" height="1309" rx="42" fill="#F5F5F5"/>
<g id="header">
<rect id="bg" x="-1128" y="-38" width="1920" height="108" fill="white"/>
<g id="menu">
<g id="main menu">
<g id="customers">
<rect id="bg_2" x="-14" y="-14" width="60" height="60" fill="white"/>
<g id="Group">
<path id="Vector" d="M26.3073 22.2173C26.9672 21.4005 27.3292 20.3833 27.334 19.3333C27.334 18.0956 26.8423 16.9087 25.9671 16.0335C25.092 15.1583 23.905 14.6666 22.6673 14.6666C21.4296 14.6666 20.2427 15.1583 19.3675 16.0335C18.4923 16.9087 18.0007 18.0956 18.0007 19.3333C18.0054 20.3833 18.3675 21.4005 19.0273 22.2173C17.8043 22.8451 16.7623 23.7755 16.0007 24.92C15.239 23.7755 14.197 22.8451 12.974 22.2173C13.6338 21.4005 13.9959 20.3833 14.0007 19.3333C14.0007 18.0956 13.509 16.9087 12.6338 16.0335C11.7586 15.1583 10.5717 14.6666 9.33398 14.6666C8.09631 14.6666 6.90932 15.1583 6.03415 16.0335C5.15898 16.9087 4.66732 18.0956 4.66732 19.3333C4.67205 20.3833 5.03414 21.4005 5.69398 22.2173C4.38274 22.8873 3.28185 23.9062 2.51256 25.1617C1.74328 26.4173 1.33544 27.8608 1.33398 29.3333C1.33398 29.6869 1.47446 30.0261 1.72451 30.2761C1.97456 30.5262 2.3137 30.6666 2.66732 30.6666H29.334C29.6876 30.6666 30.0267 30.5262 30.2768 30.2761C30.5268 30.0261 30.6673 29.6869 30.6673 29.3333C30.6659 27.8608 30.258 26.4173 29.4887 25.1617C28.7194 23.9062 27.6186 22.8873 26.3073 22.2173ZM9.33398 17.3333C9.72955 17.3333 10.1162 17.4506 10.4451 17.6704C10.774 17.8901 11.0304 18.2025 11.1817 18.5679C11.3331 18.9334 11.3727 19.3355 11.2956 19.7235C11.2184 20.1115 11.0279 20.4678 10.7482 20.7475C10.4685 21.0272 10.1121 21.2177 9.72416 21.2949C9.3362 21.3721 8.93407 21.3324 8.56862 21.1811C8.20317 21.0297 7.89081 20.7733 7.67104 20.4445C7.45128 20.1156 7.33398 19.7289 7.33398 19.3333C7.33398 18.8029 7.5447 18.2942 7.91977 17.9191C8.29484 17.544 8.80355 17.3333 9.33398 17.3333ZM4.16865 28C4.46331 26.8539 5.13073 25.8384 6.06585 25.1133C7.00097 24.3882 8.15068 23.9947 9.33398 23.9947C10.5173 23.9947 11.667 24.3882 12.6021 25.1133C13.5372 25.8384 14.2047 26.8539 14.4993 28H4.16865ZM22.6673 17.3333C23.0629 17.3333 23.4496 17.4506 23.7785 17.6704C24.1074 17.8901 24.3637 18.2025 24.5151 18.5679C24.6665 18.9334 24.7061 19.3355 24.6289 19.7235C24.5517 20.1115 24.3612 20.4678 24.0815 20.7475C23.8018 21.0272 23.4455 21.2177 23.0575 21.2949C22.6695 21.3721 22.2674 21.3324 21.902 21.1811C21.5365 21.0297 21.2241 20.7733 21.0044 20.4445C20.7846 20.1156 20.6673 19.7289 20.6673 19.3333C20.6673 18.8029 20.878 18.2942 21.2531 17.9191C21.6282 17.544 22.1369 17.3333 22.6673 17.3333ZM17.5033 28C17.7989 26.8551 18.4665 25.841 19.4013 25.1169C20.3361 24.3928 21.4849 23.9999 22.6673 23.9999C23.8497 23.9999 24.9986 24.3928 25.9333 25.1169C26.8681 25.841 27.5357 26.8551 27.8313 28H17.5033ZM9.60065 11.2C9.38848 11.4829 9.29737 11.8385 9.34738 12.1885C9.39739 12.5386 9.58442 12.8545 9.86732 13.0666C10.1502 13.2788 10.5058 13.3699 10.8559 13.3199C11.2059 13.2699 11.5218 13.0829 11.734 12.8C12.2308 12.1376 12.8749 11.6 13.6155 11.2297C14.3561 10.8594 15.1727 10.6666 16.0007 10.6666C16.8286 10.6666 17.6452 10.8594 18.3858 11.2297C19.1264 11.6 19.7705 12.1376 20.2673 12.8C20.3724 12.9401 20.504 13.0581 20.6547 13.1473C20.8053 13.2365 20.9721 13.2951 21.1454 13.3199C21.3188 13.3447 21.4953 13.3351 21.6649 13.2916C21.8345 13.2481 21.9939 13.1717 22.134 13.0666C22.2741 12.9616 22.3921 12.83 22.4813 12.6793C22.5705 12.5286 22.6292 12.3619 22.6539 12.1885C22.6787 12.0152 22.6691 11.8387 22.6256 11.6691C22.5821 11.4995 22.5057 11.3401 22.4006 11.2C21.6714 10.2265 20.7297 9.43216 19.6473 8.87731C20.3036 8.06154 20.6633 7.04698 20.6673 5.99998C20.6673 4.7623 20.1757 3.57532 19.3005 2.70015C18.4253 1.82498 17.2383 1.33331 16.0007 1.33331C14.763 1.33331 13.576 1.82498 12.7008 2.70015C11.8256 3.57532 11.334 4.7623 11.334 5.99998C11.3383 7.04652 11.698 8.06056 12.354 8.87598C11.2713 9.43097 10.3296 10.2258 9.60065 11.2ZM16.0007 3.99998C16.3962 3.99998 16.7829 4.11728 17.1118 4.33704C17.4407 4.5568 17.697 4.86916 17.8484 5.23461C17.9998 5.60006 18.0394 6.0022 17.9622 6.39016C17.885 6.77812 17.6946 7.13449 17.4149 7.41419C17.1352 7.6939 16.7788 7.88438 16.3908 7.96155C16.0029 8.03872 15.6007 7.99911 15.2353 7.84774C14.8698 7.69636 14.5575 7.44002 14.3377 7.11112C14.1179 6.78222 14.0007 6.39554 14.0007 5.99998C14.0007 5.46955 14.2114 4.96084 14.5864 4.58577C14.9615 4.21069 15.4702 3.99998 16.0007 3.99998Z" fill="#BDBDBD"/>
</g>
</g>
</g>
</g>
</g>
</g>
</g>
<g id="INFO">
</g>
<defs>
<clipPath id="clip0_0_1">
<rect x="-1128" y="-38" width="1920" height="1309" rx="42" fill="white"/>
</clipPath>
</defs>
</svg>
