<svg width="33" height="33" viewBox="0 0 33 33" fill="none" xmlns="http://www.w3.org/2000/svg">
<path d="M16.5 2.82471C8.94733 2.82471 2.82489 8.94715 2.82489 16.4998C2.82489 24.0524 8.94733 30.1749 16.5 30.1749C24.0526 30.1749 30.175 24.0524 30.175 16.4998C30.175 8.94715 24.0526 2.82471 16.5 2.82471ZM13.1524 22.1678H10.3832V13.2562H13.1524V22.1678ZM11.7507 12.1622C10.8761 12.1622 10.3106 11.5426 10.3106 10.7762C10.3106 9.99415 10.8932 9.39301 11.7863 9.39301C12.6795 9.39301 13.2265 9.99415 13.2436 10.7762C13.2436 11.5426 12.6795 12.1622 11.7507 12.1622ZM23.2663 22.1678H20.4971V17.2291C20.4971 16.0796 20.0954 15.2989 19.094 15.2989C18.329 15.2989 17.8746 15.8274 17.6737 16.336C17.5997 16.5169 17.5811 16.7733 17.5811 17.0283V22.1664H14.8105V16.0981C14.8105 14.9856 14.7749 14.0554 14.7379 13.2548H17.1438L17.2706 14.4927H17.3262C17.6908 13.9115 18.584 13.0539 20.0783 13.0539C21.9002 13.0539 23.2663 14.2747 23.2663 16.8986V22.1678Z" fill="white"/>
</svg>
