<svg width="33" height="33" viewBox="0 0 33 33" fill="none" xmlns="http://www.w3.org/2000/svg">
<path d="M20.625 16.5C20.625 17.3158 20.3831 18.1134 19.9298 18.7917C19.4766 19.4701 18.8323 19.9988 18.0786 20.311C17.3248 20.6232 16.4954 20.7049 15.6953 20.5457C14.8951 20.3866 14.1601 19.9937 13.5832 19.4168C13.0063 18.8399 12.6134 18.1049 12.4543 17.3047C12.2951 16.5046 12.3768 15.6752 12.689 14.9214C13.0012 14.1677 13.5299 13.5234 14.2083 13.0702C14.8866 12.6169 15.6842 12.375 16.5 12.375C17.593 12.3784 18.6402 12.8141 19.4131 13.5869C20.1859 14.3598 20.6216 15.407 20.625 16.5ZM29.3906 10.8281V22.1719C29.3906 24.0864 28.6301 25.9225 27.2763 27.2763C25.9225 28.6301 24.0864 29.3906 22.1719 29.3906H10.8281C8.91359 29.3906 7.07748 28.6301 5.7237 27.2763C4.36992 25.9225 3.60938 24.0864 3.60938 22.1719V10.8281C3.60938 8.91359 4.36992 7.07748 5.7237 5.7237C7.07748 4.36992 8.91359 3.60938 10.8281 3.60938H22.1719C24.0864 3.60938 25.9225 4.36992 27.2763 5.7237C28.6301 7.07748 29.3906 8.91359 29.3906 10.8281ZM22.6875 16.5C22.6875 15.2762 22.3246 14.0799 21.6447 13.0624C20.9648 12.0449 19.9985 11.2518 18.8679 10.7835C17.7372 10.3152 16.4931 10.1926 15.2929 10.4314C14.0926 10.6701 12.9901 11.2594 12.1248 12.1248C11.2594 12.9901 10.6701 14.0926 10.4314 15.2929C10.1926 16.4931 10.3152 17.7372 10.7835 18.8679C11.2518 19.9985 12.0449 20.9648 13.0624 21.6447C14.0799 22.3246 15.2762 22.6875 16.5 22.6875C18.141 22.6875 19.7148 22.0356 20.8752 20.8752C22.0356 19.7148 22.6875 18.141 22.6875 16.5ZM24.75 9.79688C24.75 9.49093 24.6593 9.19186 24.4893 8.93748C24.3193 8.6831 24.0777 8.48483 23.7951 8.36775C23.5124 8.25067 23.2014 8.22004 22.9013 8.27972C22.6013 8.33941 22.3257 8.48673 22.1093 8.70307C21.893 8.9194 21.7457 9.19503 21.686 9.49509C21.6263 9.79516 21.6569 10.1062 21.774 10.3888C21.8911 10.6715 22.0893 10.9131 22.3437 11.0831C22.5981 11.253 22.8972 11.3438 23.2031 11.3438C23.6134 11.3438 24.0068 11.1808 24.2969 10.8907C24.587 10.6006 24.75 10.2071 24.75 9.79688Z" fill="white"/>
</svg>
